#!OML:ASF F:\twosubjects\two\Thursday\Session 1\Rory.ASF
:FULLY-SPECIFIED
:DEGREES
220
root 9.66047 17.8852 5.37219 7.04724 -51.1918 6.43596
lowerback 16.0241 -0.408424 -2.68001
upperback 8.9035 -1.18263 -0.525936
thorax 0.515407 -0.790014 1.1373
lowerneck -8.5489 -1.83323 -2.01141
upperneck -6.84428 -2.29864 3.98729
head -0.628857 -1.1738 1.5305
rclavicle 8.97016e-014 -4.1049e-014
rhumerus -69.3979 -24.222 -29.2699
rradius 14.2351
rwrist 58.7566
rhand -10.0607 17.2506
rfingers 7.12502
rthumb 15.9252 -12.1147
lclavicle 8.97016e-014 -4.1049e-014
lhumerus -70.7294 -4.73492 84.0721
lradius 22.0515
lwrist -31.673
lhand -6.76265 41.4935
lfingers 7.12502
lthumb 19.0991 70.5757
rfemur -22.848 11.4859 2.9371
rtibia 34.5621
rfoot -19.947 -15.7122
rtoes -26.1707
lfemur -30.0382 -1.56224 -10.7709
ltibia 41.1984
lfoot -16.9246 -4.02268
ltoes -10.9129
221
root 9.68169 17.8761 5.37505 7.06991 -51.5922 6.58934
lowerback 15.9347 -0.294236 -3.00829
upperback 8.95173 -1.07576 -0.461913
thorax 0.618848 -0.753473 1.3709
lowerneck -8.61123 -1.75381 -2.00364
upperneck -7.16 -2.1878 4.10228
head -0.719913 -1.12383 1.57093
rclavicle 2.55438e-014 4.96962e-016
rhumerus -70.1008 -24.8493 -28.0357
rradius 14.2794
rwrist 60.2032
rhand -11.6769 18.6947
rfingers 7.12502
rthumb 14.3683 -10.788
lclavicle 2.55438e-014 4.96962e-016
lhumerus -70.6668 -4.38254 83.6667
lradius 21.8818
lwrist -33.0019
lhand -5.90742 41.0879
lfingers 7.12502
lthumb 19.9213 70.0868
rfemur -23.1853 11.1282 2.6747
rtibia 34.514
rfoot -20.2471 -14.6902
rtoes -24.1365
lfemur -29.8631 -1.64713 -11.0606
ltibia 40.5456
lfoot -17.4939 -2.8447
ltoes -13.3867
222
root 9.69355 17.8795 5.38068 7.16205 -51.8347 6.47029
lowerback 15.9187 -0.187419 -3.2103
upperback 9.03452 -0.963405 -0.295132
thorax 0.718678 -0.713618 1.6414
lowerneck -8.44812 -1.75532 -2.09819
upperneck -7.72598 -2.1734 4.26769
head -0.922483 -1.12562 1.64855
rclavicle 1.10325e-013 -3.19049e-014
rhumerus -70.8883 -25.4306 -26.5483
rradius 13.9438
rwrist 62.2309
rhand -12.6877 16.8726
rfingers 7.12502
rthumb 13.3942 -12.6768
lclavicle 1.10325e-013 -3.19049e-014
lhumerus -70.4524 -3.73622 82.4502
lradius 21.4411
lwrist -35.608
lhand -4.01083 40.5984
lfingers 7.12502
lthumb 21.7436 69.3971
rfemur -23.2315 11.0181 2.65226
rtibia 34.4432
rfoot -20.5002 -14.1582
rtoes -22.9357
lfemur -29.5368 -1.90018 -11.0732
ltibia 39.9152
lfoot -17.9245 -2.06863
ltoes -13.8162
223
root 9.71522 17.8928 5.38649 6.80728 -51.9643 6.79991
lowerback 16.1437 -0.157422 -3.58434
upperback 9.10069 -0.986717 -0.253422
thorax 0.683566 -0.742946 1.90205
lowerneck -8.67957 -1.73986 -1.98637
upperneck -7.8418 -2.16294 4.24011
head -0.923071 -1.12472 1.61924
rclavicle -6.35117e-014 -2.25621e-014
rhumerus -71.6042 -25.9141 -25.2551
rradius 13.6755
rwrist 63.8612
rhand -13.6122 16.5463
rfingers 7.12502
rthumb 12.5031 -13.0596
lclavicle -6.35117e-014 -2.25621e-014
lhumerus -70.4102 -3.31578 81.8353
lradius 21.1834
lwrist -37.4049
lhand -3.24072 39.8074
lfingers 7.12502
lthumb 22.4829 68.5186
rfemur -23.145 10.6707 2.36665
rtibia 34.3564
rfoot -20.3982 -13.8276
rtoes -24.8376
lfemur -29.2014 -2.20886 -11.3512
ltibia 39.4803
lfoot -18.0804 -2.01522
ltoes -8.59499
224
root 9.75016 17.8943 5.39226 7.00367 -51.9473 6.74482
lowerback 16.3047 -0.245489 -3.50159
upperback 9.05779 -1.09642 -0.209875
thorax 0.559022 -0.79261 1.92113
lowerneck -9.16299 -1.70129 -1.93554
upperneck -7.59478 -2.11912 4.23407
head -0.768369 -1.09781 1.60208
rclavicle 4.45278e-014 -1.08338e-014
rhumerus -71.9497 -26.0811 -25.0174
rradius 13.7619
rwrist 63.685
rhand -12.8129 15.2032
rfingers 7.12502
rthumb 13.2735 -14.3542
lclavicle 4.45278e-014 -1.08338e-014
lhumerus -70.5286 -3.2015 81.9483
lradius 21.0782
lwrist -38.106
lhand -3.45835 36.3174
lfingers 7.12502
lthumb 22.274 65.0538
rfemur -23.3641 10.0696 2.32026
rtibia 34.2932
rfoot -20.6094 -13.2281
rtoes -24.6768
lfemur -29.2976 -2.43807 -11.2872
ltibia 39.2485
lfoot -17.9794 -2.56912
ltoes -0.0178265
225
root 9.77782 17.8792 5.4025 8.02612 -51.8672 5.80843
lowerback 16.1838 -0.366541 -2.74096
upperback 8.99136 -1.14184 -0.0815083
thorax 0.536316 -0.787815 1.63284
lowerneck -9.42818 -1.71759 -2.00055
upperneck -7.43456 -2.13184 4.40857
head -0.671436 -1.09899 1.66555
rclavicle 9.24349e-015 1.02374e-014
rhumerus -71.9048 -25.7333 -25.9577
rradius 14.1515
rwrist 61.0613
rhand -5.18929 18.1867
rfingers 7.12502
rthumb 20.6115 -10.7389
lclavicle 9.24349e-015 1.02374e-014
lhumerus -70.698 -3.48766 82.6236
lradius 20.997
lwrist -37.6607
lhand -2.89179 28.2265
lfingers 7.12502
lthumb 22.8178 56.8969
rfemur -23.7569 9.81411 2.84844
rtibia 34.326
rfoot -20.7894 -13.0312
rtoes -23.6813
lfemur -29.5506 -2.32606 -10.681
ltibia 39.1498
lfoot -18.0351 -2.64767
ltoes 0.466119
226
root 9.7989 17.8701 5.40784 7.95524 -52.0834 5.98398
lowerback 16.2202 -0.341649 -2.95025
upperback 8.98625 -1.14101 -0.144147
thorax 0.515804 -0.793528 1.68571
lowerneck -9.72465 -1.67866 -1.67701
upperneck -7.14067 -2.11701 4.29779
head -0.53634 -1.09287 1.56875
rclavicle -9.13416e-014 4.88016e-014
rhumerus -72.0132 -25.3649 -26.6712
rradius 14.1544
rwrist 60.4939
rhand -3.94329 19.7027
rfingers 7.12502
rthumb 21.8084 -9.08849
lclavicle -9.13416e-014 4.88016e-014
lhumerus -70.9984 -4.0022 84.21
lradius 21.1374
lwrist -35.773
lhand -4.88959 41.3996
lfingers 7.12502
lthumb 20.8995 70.2938
rfemur -24.0475 10.1488 2.57317
rtibia 34.4572
rfoot -20.3153 -13.3356
rtoes -24.9672
lfemur -29.5052 -2.3281 -10.7989
ltibia 39.1592
lfoot -18.1529 -2.46967
ltoes -3.65815
227
root 9.82904 17.8668 5.40802 7.14822 -52.3307 6.91128
lowerback 16.5229 -0.329248 -3.8021
upperback 9.03955 -1.26119 -0.312394
thorax 0.442087 -0.881959 2.01248
lowerneck -10.209 -1.5731 -1.0716
upperneck -6.77238 -2.05163 3.98464
head -0.355851 -1.06596 1.35939
rclavicle -5.06901e-015 3.40916e-014
rhumerus -71.8451 -25.1426 -27.5162
rradius 14.0782
rwrist 60.0966
rhand -3.869 19.8135
rfingers 7.12502
rthumb 21.8797 -8.96937
lclavicle -5.06901e-015 3.40916e-014
lhumerus -70.8408 -3.30859 83.3256
lradius 20.9024
lwrist -37.2704
lhand -4.3645 44.3212
lfingers 7.12502
lthumb 21.4039 73.159
rfemur -24.2113 10.4787 1.79488
rtibia 34.5752
rfoot -19.9387 -13.49
rtoes -26.3746
lfemur -29.4256 -2.44984 -11.3407
ltibia 39.2069
lfoot -18.3698 -2.48247
ltoes -7.20244
228
root 9.86624 17.8539 5.40484 7.68645 -52.0941 6.33684
lowerback 16.7453 -0.526722 -3.54216
upperback 9.12125 -1.49238 -0.210787
thorax 0.422868 -0.992981 2.0122
lowerneck -10.4977 -1.48978 -0.879897
upperneck -6.94844 -1.96094 4.11254
head -0.367487 -1.028 1.36906
rclavicle -3.0091e-014 -1.89839e-014
rhumerus -72.5072 -25.8617 -25.9978
rradius 13.7747
rwrist 61.5545
rhand -2.99949 21.1895
rfingers 7.12502
rthumb 22.7145 -7.49355
lclavicle -3.0091e-014 -1.89839e-014
lhumerus -70.7189 -3.23369 83.6404
lradius 20.9407
lwrist -37.2031
lhand -4.42852 42.4887
lfingers 7.12502
lthumb 21.3424 71.3334
rfemur -24.4165 10.5304 2.09548
rtibia 34.6869
rfoot -20.1279 -13.5076
rtoes -25.0901
lfemur -29.8298 -2.14369 -10.9027
ltibia 39.327
lfoot -18.6236 -3.24412
ltoes -7.48548
